<svg width="32" height="32" viewBox="0 0 32 32" fill="none" xmlns="http://www.w3.org/2000/svg">
  <!-- Background circle -->
  <circle cx="16" cy="16" r="16" fill="white"/>
  
  <!-- Teacup formed by two profiles -->
  <g fill="black">
    <!-- Left profile (smaller) - forms left curve of cup -->
    <path d="M8 20 C8 18, 9 16, 10 15 C11 14, 12 13, 13 12 C14 11, 15 10, 16 10 C17 10, 18 11, 19 12 C20 13, 21 14, 22 15 C23 16, 24 18, 24 20 C24 22, 23 24, 22 25 C21 26, 20 27, 19 27 C18 27, 17 26, 16 25 C15 26, 14 27, 13 27 C12 27, 11 26, 10 25 C9 24, 8 22, 8 20 Z"/>
    
    <!-- Right profile (larger) - forms right curve and handle -->
    <path d="M22 20 C22 18, 23 16, 24 15 C25 14, 26 13, 27 12 C28 11, 29 10, 30 10 C31 10, 32 11, 32 12 C32 13, 31 14, 30 15 C29 16, 28 18, 28 20 C28 22, 29 24, 30 25 C31 26, 32 27, 32 28 C32 29, 31 30, 30 30 C29 30, 28 29, 27 28 C26 27, 25 26, 24 25 C23 24, 22 22, 22 20 Z"/>
    
    <!-- Handle of the teacup -->
    <path d="M28 18 C29 18, 30 19, 30 20 C30 21, 29 22, 28 22 C27 22, 26 21, 26 20 C26 19, 27 18, 28 18 Z"/>
  </g>
  
                <!-- Steam lines -->
              <g stroke="black" strokeWidth="1" fill="none">
                <path d="M14 8 Q15 6, 16 8 Q17 6, 18 8"/>
                <path d="M15 7 Q16 5, 17 7"/>
                <path d="M16 6 Q17 4, 18 6"/>
              </g>
  
  <!-- Text "Sue & Mon" (simplified for small size) -->
  <text x="16" y="30" text-anchor="middle" font-family="cursive" font-size="6" font-weight="bold" fill="black">Sue & Mon</text>
</svg> 