<svg width="400" height="225" viewBox="0 0 400 225" fill="none" xmlns="http://www.w3.org/2000/svg">
  <rect width="400" height="225" fill="#f3f4f6"/>
  <g opacity="0.3">
    <path d="M200 112.5C200 125.404 189.404 136 176.5 136C163.596 136 153 125.404 153 112.5C153 99.596 163.596 89 176.5 89C189.404 89 200 99.596 200 112.5Z" fill="#9ca3af"/>
    <path d="M176.5 100C176.5 100 180 103.5 180 107C180 110.5 176.5 114 176.5 114C176.5 114 173 110.5 173 107C173 103.5 176.5 100 176.5 100Z" fill="#6b7280"/>
    <path d="M176.5 114C176.5 114 180 117.5 180 121C180 124.5 176.5 128 176.5 128C176.5 128 173 124.5 173 121C173 117.5 176.5 114 176.5 114Z" fill="#6b7280"/>
    <path d="M176.5 86C176.5 86 180 89.5 180 93C180 96.5 176.5 100 176.5 100C176.5 100 173 96.5 173 93C173 89.5 176.5 86 176.5 86Z" fill="#6b7280"/>
  </g>
  <text x="200" y="160" text-anchor="middle" fill="#9ca3af" font-family="system-ui" font-size="14" font-weight="500">Tea Image</text>
</svg> 